<?xml version="1.0" encoding="iso-8859-1"?>
<!-- Generator: Adobe Illustrator 19.0.0, SVG Export Plug-In . SVG Version: 6.00 Build 0)  -->
<svg version="1.1" id="Layer_1" xmlns="http://www.w3.org/2000/svg" xmlns:xlink="http://www.w3.org/1999/xlink" x="0px" y="0px"
	 viewBox="0 0 512 512" style="enable-background:new 0 0 512 512;" xml:space="preserve">
<g>
	<g>
		<path d="M437.816,267.583c9.956-3.803,18.355-11.302,23.107-21.226C503.139,158.219,512,122.78,512,108.57
			c0-11.825-7.364-19.663-14.661-22.185c-27.157-9.389-73.026,13.396-140.22,69.661c-45.774,38.328-86.01,79.846-89.962,83.95
			c-1.01-0.502-2.059-0.939-3.14-1.304v-8.105l41.537-66.46c2.346-3.755,1.205-8.701-2.549-11.047
			c-3.756-2.346-8.701-1.205-11.047,2.549L256,213.161l-35.958-57.532c-2.346-3.754-7.292-4.897-11.047-2.549
			c-3.754,2.347-4.896,7.293-2.549,11.047l41.537,66.458v8.105c-1.083,0.367-2.133,0.803-3.145,1.307
			c-2.526-2.628-43.266-44.855-89.957-83.952C87.687,99.784,41.822,76.996,14.661,86.385C7.364,88.908,0,96.746,0,108.57
			c0,14.21,8.861,49.649,51.077,137.786c4.754,9.927,13.156,17.428,23.115,21.23c0.62,0.289,1.275,0.512,1.961,0.681
			c2.297,0.75,4.659,1.328,7.079,1.674c-4.334,3.613-8.806,7.959-13.024,13.142c-0.047,0.058-0.204,0.266-0.236,0.309
			c-8.136,10.196-12.965,26.371-12.92,43.386c0.04,14.846,3.816,37.364,21.584,60.333c12.813,16.564,33.016,29.351,56.888,36.009
			c10.849,3.025,21.788,4.546,31.648,4.546c9.012,0,17.12-1.271,23.427-3.823c7.949-3.217,21.553-13.724,47.803-67.582
			c3.409-6.995,6.641-13.935,9.582-20.437v37.831c0,4.427,3.589,8.017,8.017,8.017s8.017-3.589,8.017-8.017v-37.831
			c2.942,6.502,6.173,13.441,9.582,20.437c26.25,53.858,39.854,64.363,47.803,67.582c6.308,2.554,14.414,3.823,23.427,3.823
			c9.858,0,20.8-1.52,31.648-4.545c23.872-6.658,44.074-19.445,56.888-36.009c17.768-22.968,21.545-45.487,21.584-60.333
			c0.045-17.016-4.783-33.19-12.92-43.386c-0.032-0.043-0.189-0.251-0.236-0.309c-4.219-5.183-8.69-9.53-13.024-13.142
			c2.417-0.346,4.776-0.922,7.071-1.672C436.53,268.099,437.191,267.874,437.816,267.583z M492.1,101.539
			c0.039,0.014,3.866,1.401,3.866,7.031c0,15.14-14.303,54.774-38.815,108.096c1.033-5.933,1.887-11.708,2.538-16.875
			c4.667-37.025,0.021-43.065-1.727-45.337c-3.785-4.921-15.035-13.062-47.927-12.346c-3.219,0.07-6.69,0.248-10.262,0.541
			C457.15,99.88,481.963,98.036,492.1,101.539z M54.038,154.454c-1.749,2.274-6.393,8.312-1.727,45.338
			c0.651,5.167,1.505,10.941,2.538,16.875C30.336,163.344,16.033,123.71,16.033,108.57c0-5.63,3.828-7.017,3.866-7.031
			c2.005-0.693,4.581-1.178,7.873-1.178c13.35,0,38.426,7.975,84.458,42.289c-3.572-0.294-7.044-0.471-10.265-0.542
			C69.064,141.392,57.823,149.534,54.038,154.454z M81.546,253.18c-2.617-3.743-7.65-18.902-11.646-43.694
			c-4.031-25.009-4.097-41.624-2.868-45.574c2.638-2.597,13.823-6.232,34.582-5.773c19.624,0.43,35.229,4.289,39.95,7.701
			c0.035,0.026,1.982,1.627,2.929,2.421c39.398,32.981,74.346,68.066,85.169,79.125c-35.738,5.255-108.786,6.605-140.226,6.947
			c-0.094,0.001-0.187,0.001-0.28,0.001C86.541,254.333,83.982,253.928,81.546,253.18z M184.583,408.98
			c-9.931,4.02-27.497,3.508-44.752-1.305c-20.569-5.736-37.797-16.523-48.513-30.374c-22.981-29.708-20.238-59.59-13.527-75.594
			c3.815,5.689,4.232,10.689,4.789,17.624c0.548,6.839,1.231,15.35,5.704,25.917c7.82,18.476,26.953,34.971,51.18,44.123
			c13.562,5.124,27.617,7.692,41.428,7.692c5.631,0,11.217-0.45,16.716-1.305C192.518,402.864,188.043,407.58,184.583,408.98z
			 M247.984,295.16h-0.001c-11.477,28.833-25.578,59.056-38.173,81.172c-19.992,6.743-43.442,6.066-64.68-1.959
			c-20.205-7.633-35.936-20.857-42.081-35.375c-3.462-8.18-3.984-14.672-4.486-20.949c-0.746-9.297-1.522-18.869-11.196-30.124
			c12.491-12.767,25.878-17.855,26.007-17.903c0.011-0.004,0.021-0.01,0.032-0.014c38.461-0.728,88.324-2.467,117.476-6.606v7.638
			c0,11.047,7.172,20.445,17.102,23.8V295.16z M256,280.127c-5.01,0-9.086-4.076-9.086-9.086v-8.551c0-5.01,4.076-9.086,9.086-9.086
			s9.086,4.076,9.086,9.086v8.551C265.086,276.052,261.01,280.127,256,280.127z M302.19,376.332
			c-12.596-22.116-26.698-52.338-38.173-81.172v-0.319c9.93-3.354,17.102-12.752,17.102-23.8v-7.638
			c29.151,4.139,79.012,5.878,117.472,6.606c0.003,0.001,0.007,0.003,0.011,0.004c0.151,0.056,13.54,5.143,26.032,17.911
			c-9.674,11.254-10.45,20.825-11.196,30.124c-0.503,6.278-1.024,12.769-4.486,20.949c-6.145,14.518-21.876,27.742-42.081,35.375
			C345.632,382.397,322.183,383.074,302.19,376.332z M429.421,319.331c0.556-6.935,0.974-11.935,4.789-17.624
			c6.713,16.005,9.455,45.887-13.527,75.594c-10.715,13.851-27.944,24.638-48.513,30.374c-17.256,4.812-34.822,5.324-44.752,1.305
			c-3.46-1.4-7.935-6.116-13.024-13.221c5.499,0.855,11.084,1.304,16.716,1.304c13.809,0,27.868-2.569,41.428-7.692
			c24.227-9.153,43.36-25.647,51.18-44.123C428.189,334.682,428.871,326.17,429.421,319.331z M422.564,254.331
			c-31.439-0.341-104.487-1.692-140.226-6.947c10.823-11.059,45.77-46.143,85.169-79.125c0.953-0.797,2.898-2.398,2.929-2.421
			c4.72-3.412,20.326-7.272,39.95-7.701c20.768-0.454,31.944,3.176,34.582,5.773c1.229,3.951,1.162,20.565-2.868,45.574
			c-3.997,24.799-9.031,39.96-11.648,43.697C427.932,253.955,425.279,254.362,422.564,254.331z"/>
	</g>
</g>
<g>
</g>
<g>
</g>
<g>
</g>
<g>
</g>
<g>
</g>
<g>
</g>
<g>
</g>
<g>
</g>
<g>
</g>
<g>
</g>
<g>
</g>
<g>
</g>
<g>
</g>
<g>
</g>
<g>
</g>
</svg>
