<?xml version="1.0" encoding="iso-8859-1"?>
<!-- Generator: Adobe Illustrator 19.0.0, SVG Export Plug-In . SVG Version: 6.00 Build 0)  -->
<svg version="1.1" id="Layer_1" xmlns="http://www.w3.org/2000/svg" xmlns:xlink="http://www.w3.org/1999/xlink" x="0px" y="0px"
	 viewBox="0 0 511.999 511.999" style="enable-background:new 0 0 511.999 511.999;" xml:space="preserve">
<path style="fill:#EBCDB4;" d="M114.108,255.999C52.03,309.209,66.406,364.544,78.635,380.155
	c10.227,13.056,14.559,29.186,16.394,40.244c0.89,5.366,6.688,7.925,11.583,5.552c17.214-8.347,40.403-3.849,52.533,2.567
	c5.569,2.945,11.626,4.846,17.926,4.846h25.719c9.796,0,17.736-7.94,17.736-17.736v-16.977c0-4.544,0.698-9.061,2.071-13.392
	l24.534-58.313v-88.682L114.108,255.999"/>
<path style="fill:#463246;" d="M95.263,339.139c13.857,30.485,79.68,74.034,123.671,83.759c1.003-2.224,1.593-4.672,1.593-7.271
	v-16.977c0-4.544,0.698-9.061,2.071-13.393l24.534-58.312v-88.682l-131.157,17.488C87.503,277.616,91.251,330.313,95.263,339.139z"
	/>
<path style="fill:#5A464B;" d="M219.972,242.697c1.94-0.508,3.737-1.022,5.454-1.54l-109.452,14.594
	c-28.471,21.866-24.724,74.562-20.712,83.389C92.491,323.62,111.891,270.965,219.972,242.697z"/>
<path style="fill:#EBCDB4;" d="M25.425,78.635c-9.352,0-21.164,41.369-25.188,56.565c-0.842,3.183,0.613,6.452,3.52,7.997
	c5.72,3.042,14.689,8.367,17.235,13.035c1.901,3.485-2.717,54.774-4.073,69.334c-0.226,2.428,0.64,4.829,2.363,6.553l32.749,32.749
	c8.868,8.868,195.101-17.736,195.101-17.736v-26.605C149.581,114.108,34.293,78.635,25.425,78.635z"/>
<g>
	<path style="fill:#908490;" d="M247.131,211.658c-1.429,0-2.832-0.693-3.689-1.974l-53.209-79.814
		c-1.36-2.035-0.806-4.789,1.229-6.149c2.01-1.36,4.781-0.814,6.149,1.229l53.209,79.814c1.36,2.035,0.806,4.789-1.229,6.149
		C248.837,211.417,247.98,211.658,247.131,211.658z"/>
	<path style="fill:#908490;" d="M264.868,211.658c-0.849,0-1.706-0.243-2.46-0.745c-2.035-1.36-2.59-4.114-1.229-6.149
		l53.209-79.814c1.36-2.044,4.132-2.581,6.149-1.229c2.035,1.36,2.59,4.114,1.229,6.149l-53.209,79.814
		C267.7,210.965,266.297,211.658,264.868,211.658z"/>
</g>
<path style="fill:#463246;" d="M60.898,266.564c38.529,1.663,186.233-19.431,186.233-19.431v-26.605
	C173.367,140.057,89.497,100.173,49.13,85.496c-4.472,11.568-8.886,27.18-10.984,34.926c-0.752,2.775,0.21,5.719,2.488,7.471
	c6.755,5.197,20.265,17.251,20.265,30.553C60.898,165.917,60.898,242.54,60.898,266.564z"/>
<g>
	<circle style="fill:#99807D;" cx="81.566" cy="125.341" r="9.833"/>
	<circle style="fill:#99807D;" cx="112.882" cy="140.783" r="7.857"/>
</g>
<path style="fill:#EBCDB4;" d="M397.891,255.999c62.078,53.209,47.701,108.545,35.473,124.155
	c-10.227,13.056-14.559,29.186-16.394,40.244c-0.89,5.366-6.688,7.925-11.583,5.552c-17.214-8.347-40.403-3.849-52.533,2.567
	c-5.569,2.945-11.626,4.846-17.926,4.846h-25.719c-9.796,0-17.736-7.94-17.736-17.736v-16.977c0-4.544-0.698-9.061-2.071-13.392
	l-24.534-58.313v-88.682L397.891,255.999"/>
<path style="fill:#463246;" d="M416.736,339.139c-13.857,30.485-79.68,74.034-123.671,83.759c-1.003-2.224-1.593-4.672-1.593-7.271
	v-16.977c0-4.544-0.698-9.061-2.071-13.393l-24.534-58.312v-88.682l131.157,17.487C424.496,277.616,420.749,330.313,416.736,339.139
	z"/>
<path style="fill:#5A464B;" d="M292.027,242.697c-1.94-0.508-3.737-1.022-5.454-1.54l109.452,14.594
	c28.471,21.866,24.724,74.562,20.712,83.389C419.508,323.62,400.108,270.965,292.027,242.697z"/>
<path style="fill:#EBCDB4;" d="M486.574,78.635c9.352,0,21.164,41.369,25.188,56.565c0.842,3.183-0.613,6.452-3.52,7.997
	c-5.72,3.042-14.689,8.367-17.235,13.035c-1.901,3.485,2.717,54.774,4.073,69.334c0.226,2.428-0.64,4.829-2.363,6.553
	l-32.749,32.749c-8.868,8.868-195.101-17.736-195.101-17.736v-26.605C362.418,114.108,477.705,78.635,486.574,78.635z"/>
<path style="fill:#463246;" d="M451.101,266.564c-38.529,1.663-186.233-19.431-186.233-19.431v-26.605
	c73.764-80.47,157.634-120.354,198.001-135.03c4.472,11.568,8.886,27.18,10.984,34.926c0.752,2.775-0.21,5.719-2.488,7.471
	c-6.755,5.197-20.265,17.251-20.265,30.553C451.101,165.917,451.101,242.54,451.101,266.564z"/>
<g>
	<circle style="fill:#99807D;" cx="430.431" cy="125.341" r="9.833"/>
	<circle style="fill:#99807D;" cx="399.126" cy="140.783" r="7.857"/>
</g>
<circle style="fill:#463246;" cx="256.004" cy="211.663" r="17.736"/>
<path style="fill:#5A464B;" d="M255.999,335.814L255.999,335.814c-9.796,0-17.736-7.94-17.736-17.736v-79.814
	c0-9.796,7.94-17.736,17.736-17.736l0,0c9.796,0,17.736,7.94,17.736,17.736v79.814C273.736,327.873,265.795,335.814,255.999,335.814
	z"/>
<g>
</g>
<g>
</g>
<g>
</g>
<g>
</g>
<g>
</g>
<g>
</g>
<g>
</g>
<g>
</g>
<g>
</g>
<g>
</g>
<g>
</g>
<g>
</g>
<g>
</g>
<g>
</g>
<g>
</g>
</svg>
